<svg width="37" height="47" viewBox="0 0 37 47" fill="none" xmlns="http://www.w3.org/2000/svg">
<g filter="url(#filter0_d_1_214)">
<path fill-rule="evenodd" clip-rule="evenodd" d="M11.9352 10.5H25C24.9984 10.3521 24.9939 10.1886 24.9851 10.0124C24.9426 9.16369 24.8017 8.06656 24.4268 6.99553C24.0529 5.92726 23.469 4.94708 22.5774 4.2338C21.7045 3.53548 20.4218 3 18.4676 3C16.5134 3 15.2307 3.53548 14.3578 4.2338C13.4662 4.94708 12.8823 5.92726 12.5084 6.99553C12.1335 8.06655 11.9925 9.16369 11.9501 10.0124C11.9413 10.1886 11.9368 10.3521 11.9352 10.5ZM28.0001 10.5C27.9984 10.3065 27.9929 10.0928 27.9813 9.86259C27.93 8.83631 27.7585 7.43344 27.2584 6.00447C26.7573 4.57274 25.9036 3.05292 24.4515 1.8912C22.9806 0.714517 21.0134 0 18.4676 0C15.9218 0 13.9545 0.714517 12.4837 1.8912C11.0315 3.05292 10.1779 4.57274 9.67682 6.00447C9.17667 7.43345 9.00516 8.83631 8.95384 9.86259C8.94233 10.0928 8.93676 10.3065 8.93509 10.5H5.46758L4.01694 29.9849C3.71943 34.5963 7.37941 38.5 12.0003 38.5H24.9348C29.5557 38.5 33.2157 34.5963 32.9182 29.9849L31.4676 10.5H28.0001Z" fill="#C19A6B"/>
</g>
<defs>
<filter id="filter0_d_1_214" x="0" y="0" width="36.9352" height="46.5" filterUnits="userSpaceOnUse" color-interpolation-filters="sRGB">
<feFlood flood-opacity="0" result="BackgroundImageFix"/>
<feColorMatrix in="SourceAlpha" type="matrix" values="0 0 0 0 0 0 0 0 0 0 0 0 0 0 0 0 0 0 127 0" result="hardAlpha"/>
<feOffset dy="4"/>
<feGaussianBlur stdDeviation="2"/>
<feComposite in2="hardAlpha" operator="out"/>
<feColorMatrix type="matrix" values="0 0 0 0 0 0 0 0 0 0 0 0 0 0 0 0 0 0 0.25 0"/>
<feBlend mode="normal" in2="BackgroundImageFix" result="effect1_dropShadow_1_214"/>
<feBlend mode="normal" in="SourceGraphic" in2="effect1_dropShadow_1_214" result="shape"/>
</filter>
</defs>
</svg>
