<svg width="46" height="33" viewBox="0 0 46 33" fill="none" xmlns="http://www.w3.org/2000/svg">
<rect x="1" y="1" width="43.9231" height="31.1208" rx="15.5604" stroke="#F4F4F6"/>
<path fill-rule="evenodd" clip-rule="evenodd" d="M32.2025 24.1168L30.2976 26.0217C30.2976 26.0217 25.3478 28.143 18.2767 21.072C11.2057 14.0009 13.327 9.05119 13.327 9.05119L15.2319 7.14626C16.0925 6.28564 17.5159 6.38679 18.2461 7.36047L20.0644 9.78484C20.6616 10.5811 20.5824 11.6953 19.8786 12.399L18.2767 14.0009C18.2767 14.0009 18.2767 15.4151 21.1052 18.2435C23.9336 21.072 25.3478 21.072 25.3478 21.072L26.9497 19.4701C27.6535 18.7663 28.7677 18.6871 29.5639 19.2843L31.9883 21.1026C32.962 21.8328 33.0631 23.2562 32.2025 24.1168Z" fill="#121826"/>
</svg>
