<svg width="24" height="24" viewBox="0 0 24 24" fill="none" xmlns="http://www.w3.org/2000/svg">
<path d="M20 12.1778C20 11.52 19.9456 11.04 19.8278 10.5423H12.1633V13.5111H16.6621C16.5715 14.2489 16.0817 15.36 14.9933 16.1067L14.9779 16.2061L17.4013 18.0459L17.5692 18.0622C19.1111 16.6667 20 14.6134 20 12.1778Z" fill="#4285F4"/>
<path d="M12.1633 20C14.3673 20 16.2177 19.2889 17.5691 18.0622L14.9932 16.1066C14.3038 16.5777 13.3786 16.9067 12.1633 16.9067C10.0045 16.9067 8.17235 15.5112 7.51923 13.5823L7.4235 13.5902L4.90368 15.5013L4.87073 15.5911C6.21311 18.2044 8.97048 20 12.1633 20Z" fill="#34A853"/>
<path d="M7.51923 13.5822C7.3469 13.0845 7.24716 12.5511 7.24716 12C7.24716 11.4489 7.3469 10.9156 7.51017 10.4178L7.50561 10.3118L4.9542 8.36994L4.87073 8.40886C4.31746 9.49331 4 10.7111 4 12C4 13.2889 4.31746 14.5066 4.87073 15.5911L7.51923 13.5822Z" fill="#FBBC05"/>
<path d="M12.1633 7.09332C13.6961 7.09332 14.7301 7.7422 15.3197 8.28447L17.6235 6.08C16.2087 4.79112 14.3673 4 12.1633 4C8.97048 4 6.21311 5.79554 4.87073 8.40887L7.51017 10.4178C8.17235 8.4889 10.0045 7.09332 12.1633 7.09332Z" fill="#EB4335"/>
</svg>
