<svg width="27" height="27" viewBox="0 0 27 27" fill="none" xmlns="http://www.w3.org/2000/svg">
<path fill-rule="evenodd" clip-rule="evenodd" d="M13.3187 2.21979C10.2538 2.21979 7.76927 4.70437 7.76927 7.76924V9.06914C5.4313 9.33735 3.62467 11.1989 3.4531 13.5726C3.38134 14.5655 3.32971 15.6328 3.32971 16.6484C3.32971 17.6639 3.38134 18.7312 3.45311 19.7241C3.6309 22.184 5.56476 24.0939 8.02622 24.2504C9.49824 24.344 11.2982 24.4176 13.3187 24.4176C15.3393 24.4176 17.1392 24.344 18.6112 24.2504C21.0726 24.0939 23.0065 22.184 23.1843 19.7241C23.2561 18.7312 23.3077 17.6639 23.3077 16.6484C23.3077 15.6328 23.2561 14.5655 23.1843 13.5726C23.0127 11.1989 21.2061 9.33735 18.8682 9.06914V7.76924C18.8682 4.70437 16.3836 2.21979 13.3187 2.21979ZM16.6484 8.94518V7.76924C16.6484 5.93032 15.1577 4.43957 13.3187 4.43957C11.4797 4.43957 9.98905 5.93032 9.98905 7.76924V8.94518C11.0071 8.90484 12.1244 8.87913 13.3187 8.87913C14.5131 8.87913 15.6304 8.90484 16.6484 8.94518ZM14.4286 17.4612C15.0921 17.0774 15.5385 16.3601 15.5385 15.5385C15.5385 14.3125 14.5447 13.3187 13.3187 13.3187C12.0927 13.3187 11.0989 14.3125 11.0989 15.5385C11.0989 16.3601 11.5453 17.0774 12.2088 17.4612V18.8681C12.2088 19.4811 12.7057 19.978 13.3187 19.978C13.9317 19.978 14.4286 19.4811 14.4286 18.8681V17.4612Z" fill="#D3D5DA"/>
</svg>
