<svg width="26" height="26" viewBox="0 0 26 26" fill="none" xmlns="http://www.w3.org/2000/svg">
<path opacity="0.01" fill-rule="evenodd" clip-rule="evenodd" d="M26 0V26H0V0H26Z" fill="#D3D5DA"/>
<path fill-rule="evenodd" clip-rule="evenodd" d="M17.3333 8.66668C17.3333 6.27251 15.3941 4.33334 13 4.33334C10.6058 4.33334 8.66665 6.27251 8.66665 8.66668C8.66665 11.0608 10.6058 13 13 13C15.3941 13 17.3333 11.0608 17.3333 8.66668ZM13 14.0833C17.4416 14.0833 21.6666 16.9 21.6666 19.5C21.6666 21.6667 13 21.6667 13 21.6667C13 21.6667 4.33331 21.6667 4.33331 19.5C4.33331 16.9 8.55831 14.0833 13 14.0833Z" fill="#D3D5DA"/>
</svg>
